# xmcd
#
# Track frame offsets:
# 150
# 13627
# 29102
# 38585
# 51725
# 65955
# 75942
# 86037
# 96425
# 108767
# 121967
# 131590
# 141375
# 155375
# 173460
# 191137
# 202167
# 218940
# 231425
# 243900
# 261625
# 277920
# 287255
# 295017
# 306160
#
# Disc length: 4269 seconds
#
#
# Revision: 1
# Processed by: cddbd v1.5.1PL2 Copyright (c) Steve Scherf et al.
# Submitted via: FreeRIP 2.944 
#
DISCID=7a10ab19
DTITLE=ZeZo - 25 Sucessos
DYEAR=1900
DGENRE=Country
TTITLE0=Meu Cenario
TTITLE1=Ponta De Faca
TTITLE2=Eu Agradeco
TTITLE3=Mensageiro BeijaFlor
TTITLE4=Sina De Caboclo
TTITLE5=O Pauco Caiu
TTITLE6=Amado Gostoso
TTITLE7=Siboney
TTITLE8=Para Sempre Vou Te Amar
TTITLE9=Qui Nem Gilo
TTITLE10=Na Parede Da Paixao
TTITLE11=Moendo Cafe
TTITLE12=Lamento Sertanejo
TTITLE13=Loucuras De Amor
TTITLE14=Eu Te Amo Fortaleza
TTITLE15=Desencontro De Primavera
TTITLE16=Diga Para Mim
TTITLE17=Ze Do Rock
TTITLE18=Pout Pourri
TTITLE19=Voce Pode Me Perder
TTITLE20=Com Voce No Coracao
TTITLE21=Segredos
TTITLE22=E Mole Ou Quer Mais
TTITLE23=Buli Com Tu
TTITLE24=Dois Rubis
EXTD=
EXTT0=
EXTT1=
EXTT2=
EXTT3=
EXTT4=
EXTT5=
EXTT6=
EXTT7=
EXTT8=
EXTT9=
EXTT10=
EXTT11=
EXTT12=
EXTT13=
EXTT14=
EXTT15=
EXTT16=
EXTT17=
EXTT18=
EXTT19=
EXTT20=
EXTT21=
EXTT22=
EXTT23=
EXTT24=
PLAYORDER=
